<svg width="280" height="120" viewBox="0 0 280 120" fill="none" xmlns="http://www.w3.org/2000/svg">
<path d="M55.6459 105.431C70.0411 105.431 81.7108 103.446 81.7108 100.998C81.7108 98.5503 70.0411 96.5658 55.6459 96.5658C41.2507 96.5658 29.5811 98.5503 29.5811 100.998C29.5811 103.446 41.2507 105.431 55.6459 105.431Z" fill="#E24A4A"/>
<path d="M102.092 21.7637C99.7419 16.2572 95.1244 12.0241 89.0914 9.84407C83.5235 7.83127 77.2038 7.80709 71.7562 9.77758C65.651 11.9858 60.1573 16.3177 55.604 22.4568C51.0507 16.3157 45.555 11.9858 39.4518 9.77758C34.0043 7.80709 27.6865 7.83328 22.1167 9.84407C16.0837 12.0241 11.4662 16.2572 9.11633 21.7637C6.79054 27.2158 6.67225 33.3912 8.76345 40.1227C10.3073 45.0933 13.0622 50.362 16.9518 55.7859C26.9547 69.7305 39.113 81.5675 53.0918 90.9646C53.8497 91.4744 54.7258 91.7282 55.604 91.7282C56.4822 91.7282 57.3584 91.4724 58.1143 90.9646C72.093 81.5655 84.2513 69.7305 94.2522 55.7859C98.1419 50.362 100.895 45.0933 102.441 40.1227C104.532 33.3912 104.415 27.2158 102.088 21.7637H102.092ZM56.011 61.508C48.4803 61.508 42.3771 55.3749 42.3771 47.8072C42.3771 40.2396 48.4803 34.1065 56.011 34.1065C63.5418 34.1065 69.645 40.2396 69.645 47.8072C69.645 55.3749 63.5418 61.508 56.011 61.508Z" fill="#E24A4A"/>
<path d="M132.062 23.5153V49.901H129.151V26.4428H124.993V49.901H122.082V23.5153H132.062Z" fill="#333333"/>
<path d="M144.77 46.5172C144.594 47.4804 144.178 48.2915 143.523 48.9505C142.893 49.5842 141.973 49.901 140.763 49.901H138.721V46.9735H140.763C141.091 46.9735 141.343 46.8974 141.519 46.7454C141.696 46.5933 141.809 46.4159 141.859 46.2131L142.729 41.4986H140.12L136.037 23.5153H139.024L142.2 38.5711H143.22L145.942 23.5153H148.891L144.77 46.5172Z" fill="#333333"/>
<path d="M160.32 23.5153H163.231V49.901H160.32V34.8452H155.821V49.901H152.91V23.5153H155.821V31.9176H160.32V23.5153Z" fill="#333333"/>
<path d="M168.527 23.5153H171.438V32.1458H173.933L176.806 23.5153H179.906L176.617 33.4004L180.133 49.901H177.146L173.895 34.617H171.438V49.901H168.527V23.5153Z" fill="#333333"/>
<path d="M195.356 23.5153V26.4428H190.555V49.901H187.644V26.4428H182.843V23.5153H195.356Z" fill="#333333"/>
<path d="M139.775 61.5352V87.9209H136.864V76.515L137.242 64.1585H136.183L133.348 81.5336H128.509L125.673 64.1585H124.615L124.993 76.515V87.9209H122.082V61.5352H128.017L130.663 78.9482H131.193L133.839 61.5352H139.775Z" fill="#333333"/>
<path d="M152.304 87.9209V71.1542L147.994 75.5264V87.9209H145.083V61.5352H147.994V71.9906L152.304 67.4662V61.5352H155.215V87.9209H152.304Z" fill="#333333"/>
<path d="M170.738 61.5352V87.9209H167.827V64.4627H164.5L163.63 84.271C163.58 85.4876 163.315 86.4001 162.836 87.0084C162.383 87.6167 161.551 87.9209 160.341 87.9209H158.753V84.9934H159.963C160.266 84.9934 160.455 84.9554 160.53 84.8793C160.631 84.7779 160.694 84.5752 160.719 84.271L161.702 61.5352H170.738Z" fill="#333333"/>
<path d="M181.928 61.3069C182.659 61.3069 183.276 61.421 183.78 61.6491C184.31 61.8519 184.726 62.1434 185.028 62.5236C185.356 62.8784 185.595 63.3093 185.746 63.8162C185.898 64.2978 185.973 64.8174 185.973 65.3751V84.0808C185.973 84.6384 185.898 85.1707 185.746 85.6776C185.595 86.1592 185.356 86.5901 185.028 86.9703C184.726 87.3252 184.31 87.6166 183.78 87.8448C183.276 88.0475 182.659 88.1489 181.928 88.1489H179.697C178.967 88.1489 178.336 88.0475 177.807 87.8448C177.303 87.6166 176.887 87.3252 176.56 86.9703C176.257 86.5901 176.03 86.1592 175.879 85.6776C175.728 85.1707 175.652 84.6384 175.652 84.0808V65.3751C175.652 64.8174 175.728 64.2978 175.879 63.8162C176.03 63.3093 176.257 62.8784 176.56 62.5236C176.887 62.1434 177.303 61.8519 177.807 61.6491C178.336 61.421 178.967 61.3069 179.697 61.3069H181.928ZM181.928 85.2214C182.331 85.2214 182.621 85.1073 182.798 84.8792C182.974 84.6511 183.062 84.385 183.062 84.0808V65.3751C183.062 65.0709 182.974 64.8048 182.798 64.5766C182.621 64.3485 182.331 64.2345 181.928 64.2345H179.697C179.269 64.2345 178.967 64.3485 178.79 64.5766C178.639 64.8048 178.563 65.0709 178.563 65.3751V84.0808C178.563 84.385 178.639 84.6511 178.79 84.8792C178.967 85.1073 179.269 85.2214 179.697 85.2214H181.928Z" fill="#333333"/>
<path d="M198.272 76.6289H201.183V84.0808C201.183 84.6384 201.108 85.1707 200.956 85.6776C200.805 86.1592 200.566 86.5901 200.238 86.9703C199.936 87.3252 199.52 87.6166 198.991 87.8448C198.486 88.0475 197.869 88.1489 197.138 88.1489H194.945C194.214 88.1489 193.584 88.0475 193.055 87.8448C192.551 87.6166 192.135 87.3252 191.807 86.9703C191.505 86.5901 191.278 86.1592 191.127 85.6776C190.976 85.1707 190.9 84.6384 190.9 84.0808V65.3751C190.9 64.8174 190.976 64.2978 191.127 63.8162C191.278 63.3093 191.505 62.8784 191.807 62.5236C192.135 62.1434 192.551 61.8519 193.055 61.6491C193.584 61.421 194.214 61.3069 194.945 61.3069H197.138C197.869 61.3069 198.486 61.421 198.991 61.6491C199.52 61.8519 199.936 62.1434 200.238 62.5236C200.566 62.8784 200.805 63.3093 200.956 63.8162C201.108 64.2978 201.183 64.8174 201.183 65.3751V70.4697H198.272V65.3751C198.272 65.0709 198.184 64.8048 198.008 64.5766C197.831 64.3485 197.541 64.2345 197.138 64.2345H194.945C194.542 64.2345 194.252 64.3485 194.076 64.5766C193.899 64.8048 193.811 65.0709 193.811 65.3751V84.0808C193.811 84.385 193.899 84.6511 194.076 84.8792C194.252 85.1073 194.542 85.2214 194.945 85.2214H197.138C197.541 85.2214 197.831 85.1073 198.008 84.8792C198.184 84.6511 198.272 84.385 198.272 84.0808V76.6289Z" fill="#333333"/>
<path d="M214.918 61.5352V64.4627H209.096V69.8995H213.444V72.8651H209.096V84.9934H214.918V87.9209H206.185V61.5352H214.918Z" fill="#333333"/>
<path d="M229.228 75.4884C229.228 76.2235 229.115 76.8571 228.888 77.3894C228.686 77.8963 228.396 78.3146 228.018 78.6441C227.64 78.9482 227.199 79.1763 226.695 79.3284C226.216 79.4805 225.7 79.5565 225.145 79.5565H222.461V87.9209H219.55V61.5352H225.145C225.876 61.5352 226.494 61.6492 226.998 61.8773C227.527 62.0801 227.955 62.3716 228.283 62.7518C228.611 63.1066 228.85 63.5375 229.001 64.0445C229.153 64.5261 229.228 65.0457 229.228 65.6033V75.4884ZM226.279 65.6033C226.279 65.2991 226.191 65.033 226.015 64.8049C225.863 64.5767 225.574 64.4627 225.145 64.4627H222.461V76.629H225.145C225.473 76.629 225.737 76.553 225.939 76.4009C226.166 76.2235 226.279 75.9193 226.279 75.4884V65.6033Z" fill="#333333"/>
<path d="M245.868 84.9934V91.4187H243.865L243.298 87.9209H234.262L233.997 91.4187H231.653V84.9934H233.355C233.884 84.6385 234.161 84.0556 234.186 83.2445L235.056 61.5352H243.865V84.9934H245.868ZM240.954 84.9934V64.4627H237.854L237.06 83.3585C237.009 84.0175 236.808 84.5625 236.455 84.9934H240.954Z" fill="#333333"/>
<path d="M256.787 87.9209V71.1542L252.477 75.5264V87.9209H249.566V61.5352H252.477V71.9906L256.787 67.4662V61.5352H259.698V87.9209H256.787Z" fill="#333333"/>
<path d="M274.648 61.5352V87.9209H271.737V75.2983H270.074L267.201 87.9209H264.214L267.125 75.1082C266.394 74.8801 265.789 74.4619 265.31 73.8536C264.832 73.2453 264.592 72.3708 264.592 71.2302V65.6033C264.592 65.0457 264.668 64.5261 264.819 64.0445C264.97 63.5375 265.197 63.1066 265.499 62.7518C265.827 62.3716 266.243 62.0801 266.747 61.8773C267.276 61.6492 267.906 61.5352 268.637 61.5352H274.648ZM271.737 64.4627H268.637C268.209 64.4627 267.906 64.5767 267.73 64.8049C267.579 65.033 267.503 65.2991 267.503 65.6033V71.2302C267.503 71.6358 267.617 71.9272 267.843 72.1047C268.07 72.2821 268.335 72.3708 268.637 72.3708H271.737V64.4627Z" fill="#333333"/>
</svg>
